<svg xmlns="http://www.w3.org/2000/svg" xmlns:bx="https://boxy-svg.com" xmlns:xlink="http://www.w3.org/1999/xlink" viewBox="0 0 250 272"><defs><path id="path-0" d="M 79.918 220.799 C 91.95 189.594 97.566 183.551 110.656 172.643 C 118.474 165.979 123.794 160.53 129.098 155.225 C 134.04 151.308 141.63 143.955 143.443 143.955 C 145.606 142.303 148.344 140.736 151.127 139.344 C 155.647 137.084 158.793 133.886 162.398 132.684 C 162.91 130.302 169.319 129.349 171.107 127.561 C 178.612 126.025 186.492 119.225 191.086 115.779 C 196.026 115.266 200.688 114.308 203.893 112.705 C 208.015 112.193 211.329 109.119 214.139 109.119 C 216.502 109.119 221.705 109.238 222.848 108.094 C 227.911 108.094 230.872 107.07 234.631 107.07 C 243.205 106.557 250.758 107.07 258.197 107.07 C 268.815 107.07 278.024 108.056 286.373 110.143 C 299.59 112.377 310.542 112.645 321.721 114.242 C 332.509 117.067 338.264 124.075 345.799 129.098 C 352.372 135.672 356.782 141.106 362.193 146.516 C 367.606 153.356 372.659 158.118 376.537 163.934 C 383.156 171.066 383.06 179.354 386.783 184.939 C 389.149 192.354 390.047 198.127 392.418 202.869 C 392.93 208.895 395.484 215.127 396.516 220.287 L 396.516 222.336 C 396.516 224.485 396.632 229.624 398.053 231.045" style="fill:none"/><filter id="posterize-filter-0" width="1000%" height="1000%" x="-500%" y="-500%" bx:preset="posterize 1 r 3 0.9"><feColorMatrix type="saturate" values=".9"/><feComponentTransfer><feFuncR tableValues="0 0.333 0.667 1" type="discrete"/><feFuncG type="discrete"/><feFuncB type="discrete"/></feComponentTransfer></filter><path id="path-1" d="M 171.107 226.548 C 186.154 218.793 193.562 214.552 201.332 210.667 C 205.877 206.122 209.157 203.284 212.09 198.884 C 214.547 193.051 216.778 189.509 218.75 185.565 C 221.349 182.966 221.425 178.792 223.361 176.856 C 223.873 174.847 226.434 173.219 226.434 171.733 L 226.947 171.733 C 226.947 169.965 227.633 170.022 228.484 169.171" style="fill:none"/><filter id="contrast-filter-0" width="1000%" height="1000%" x="-500%" y="-500%" bx:preset="contrast 1 0.7"><feComponentTransfer><feFuncR intercept=".15" slope=".7" type="linear"/><feFuncG intercept=".15" slope=".7" type="linear"/><feFuncB intercept=".15" slope=".7" type="linear"/></feComponentTransfer></filter></defs><path d="M 239.227 382.741 C 239.227 382.741 239.272 381.867 239.322 381.429 C 239.372 380.991 239.439 380.551 239.521 380.095 C 239.686 379.181 239.904 378.244 240.148 377.284 C 240.635 375.363 241.217 373.378 241.622 371.474 C 242.026 369.568 242.259 367.682 242.024 366.043 C 241.787 364.391 241 362.874 239.534 361.787 C 236.466 359.612 232.571 358.717 228.427 358.76 C 224.293 358.816 219.793 359.777 215.435 361.241 C 211.078 362.709 206.796 364.694 203.063 366.791 C 199.328 368.89 196.094 371.128 193.833 373.085 C 192.499 374.241 191.158 375.444 189.864 376.694 C 188.568 377.946 187.305 379.257 186.131 380.622 C 184.957 381.987 183.855 383.427 182.884 384.925 C 181.916 386.425 181.06 388.016 180.378 389.666 C 179.612 391.553 179.24 395.047 179.156 399.217 C 179.073 403.38 179.262 408.295 179.597 413.098 C 179.934 417.902 180.419 422.615 180.925 426.378 C 181.435 430.148 181.983 433.026 182.428 434.106 C 183.096 435.699 183.988 437.196 185.01 438.569 C 186.034 439.941 187.215 441.234 188.463 442.446 C 189.711 443.655 191.047 444.808 192.39 445.917 C 193.734 447.024 195.095 448.097 196.406 449.159 C 197.806 450.293 199.23 451.446 200.684 452.568 C 202.138 453.689 203.633 454.786 205.164 455.798 C 206.697 456.81 208.287 457.749 209.922 458.551 C 211.556 459.352 213.27 460.031 215.03 460.523 C 218.811 461.573 223.847 462.171 228.8 461.925 C 233.752 461.679 238.74 460.564 242.378 458.253 C 246.013 455.901 248.428 452.192 248.105 446.987 C 247.786 441.845 244.838 435.074 238.099 426.434 C 236.689 424.657 234.74 423.497 232.586 422.888 C 230.434 422.296 227.97 422.194 225.49 422.444 C 223.012 422.693 220.441 423.288 218.027 424.064 C 215.612 424.841 213.307 425.812 211.351 426.809 C 210.317 427.363 209.537 428.346 209.091 429.46 C 208.666 430.571 208.489 431.925 208.54 433.254 C 208.598 434.58 208.876 435.979 209.323 437.209 C 209.777 438.441 210.44 439.592 211.218 440.408 C 212.147 441.337 213.35 441.818 214.584 441.993 C 215.814 442.156 217.169 442.072 218.499 441.955 C 219.829 441.839 221.149 441.692 222.391 441.731 C 223.629 441.764 224.713 441.95 225.665 442.54 C 225.799 442.598 225.789 442.614 225.815 442.714 C 225.842 442.821 225.834 442.888 225.773 443.067 C 225.639 443.458 225.327 443.882 224.857 444.325 C 224.387 444.778 223.844 445.166 223.279 445.431 C 222.727 445.701 222.291 445.825 221.931 445.721 C 219.798 445.256 217.588 444.797 215.384 444.268 C 213.179 443.739 210.995 443.143 208.891 442.397 C 206.788 441.653 204.801 440.775 202.97 439.663 C 201.139 438.557 199.515 437.258 198.125 435.637 C 193.078 429.8 190.342 422.524 189.61 414.955 C 188.859 407.387 190.139 399.662 193.223 392.935 C 196.289 386.204 201.091 380.61 207.471 377.271 C 213.856 373.929 221.683 372.898 230.911 375.482 C 231.7 375.693 232.355 376.065 233.002 376.574 C 233.654 377.079 234.233 377.687 234.813 378.366 C 235.394 379.043 235.954 379.773 236.534 380.489 C 237.116 381.206 237.73 381.919 238.389 382.537 L 239.071 381.807 C 238.45 381.229 237.884 380.566 237.312 379.861 C 236.74 379.153 236.171 378.414 235.573 377.716 C 234.974 377.016 234.323 376.339 233.617 375.786 C 232.907 375.235 232.078 374.775 231.179 374.518 C 221.753 371.92 213.546 372.963 207.007 376.385 C 200.463 379.81 195.455 385.67 192.313 392.519 C 189.191 399.372 187.869 407.353 188.614 415.053 C 189.376 422.75 192.232 430.302 197.367 436.289 C 198.823 437.974 200.567 439.375 202.452 440.519 C 204.339 441.659 206.418 442.581 208.557 443.339 C 210.697 444.097 212.931 444.707 215.15 445.24 C 217.37 445.773 219.59 446.234 221.717 446.698 C 222.301 446.799 223.058 446.639 223.71 446.333 C 224.349 446.024 225.021 445.548 225.547 445.049 C 226.073 444.542 226.535 443.926 226.719 443.391 C 226.817 443.107 226.854 442.739 226.783 442.465 C 226.711 442.183 226.459 441.872 226.179 441.682 C 225.061 441.03 223.735 440.772 222.419 440.731 C 221.109 440.696 219.731 440.843 218.411 440.959 C 217.093 441.074 215.848 441.162 214.72 441.003 C 213.598 440.856 212.687 440.523 211.938 439.714 C 211.234 438.996 210.681 438.021 210.263 436.865 C 209.836 435.709 209.588 434.462 209.54 433.212 C 209.485 431.967 209.628 430.815 210.023 429.824 C 210.397 428.834 210.939 428.115 211.805 427.699 C 213.729 426.718 215.96 425.779 218.333 425.016 C 220.707 424.252 223.176 423.681 225.59 423.438 C 228.002 423.196 230.28 423.278 232.318 423.852 C 234.352 424.409 236.041 425.395 237.311 427.05 C 243.986 435.58 246.798 442.077 247.107 447.049 C 247.412 451.958 245.323 455.209 241.839 457.411 C 238.362 459.654 233.62 460.685 228.75 460.927 C 223.881 461.169 219.003 460.595 215.298 459.559 C 213.588 459.085 211.962 458.438 210.362 457.653 C 208.763 456.869 207.227 455.962 205.716 454.964 C 204.205 453.966 202.74 452.891 201.294 451.776 C 199.85 450.662 198.436 449.515 197.036 448.381 C 195.719 447.315 194.362 446.246 193.026 445.145 C 191.691 444.044 190.387 442.918 189.159 441.728 C 187.933 440.538 186.804 439.305 185.812 437.971 C 184.818 436.64 183.986 435.251 183.35 433.722 C 182.935 432.74 182.421 429.988 181.917 426.244 C 181.411 422.497 180.93 417.816 180.595 413.028 C 180.26 408.241 180.073 403.37 180.156 399.237 C 180.238 395.109 180.572 391.795 181.302 390.047 C 181.962 388.444 182.776 386.933 183.724 385.469 C 184.671 384.003 185.733 382.617 186.889 381.274 C 188.045 379.929 189.276 378.652 190.558 377.414 C 191.84 376.176 193.161 374.991 194.487 373.841 C 196.706 371.918 199.858 369.738 203.553 367.663 C 207.252 365.584 211.448 363.637 215.753 362.189 C 220.057 360.739 224.403 359.804 228.439 359.76 C 232.467 359.705 236.064 360.506 238.951 362.599 C 240.261 363.504 240.819 364.689 241.034 366.185 C 241.251 367.694 241.04 369.402 240.644 371.266 C 240.249 373.134 239.671 375.099 239.178 377.038 C 238.933 378.008 238.706 378.979 238.537 379.918 C 238.453 380.387 238.381 380.859 238.328 381.315 C 238.276 381.772 238.233 382.627 238.233 382.627 C 238.232 382.637 239.228 382.731 239.227 382.741 Z" style="fill:none"/><a lang="en" transform="matrix(1, 0, 0, 1, 8.500004, 0.000004)" xlink:href="https://github.com/bjlittle/geovista"><desc>Cartographic rendering and mesh analytics powered by PyVista.</desc><title>GeoVista</title><g transform="matrix(1.000705, 0, 0, 0.997959, 6.422447, 12.712266)" style="filter:url(#posterize-filter-0)"><rect width="4.767" height="4.772" x=".672" y="129.144" style="fill:rgba(151,181,52,.5)"/><rect width="4.767" height="4.772" x="6.783" y="135.261" style="fill:rgba(148,181,51,.22)"/><rect width="4.767" height="4.772" x="6.783" y="141.379" style="fill:#87a524"/><rect width="4.767" height="4.772" x="6.783" y="147.496" style="fill:rgba(136,166,37,.93)"/><rect width="4.767" height="4.772" x="12.894" y="159.732" style="fill:rgba(136,166,36,.83)"/><rect width="4.767" height="4.772" x="19.006" y="43.496" style="fill:rgba(134,170,36,.08)"/><rect width="4.767" height="4.772" x="31.228" y="31.261" style="fill:rgba(159,191,58,.38)"/><rect width="4.767" height="4.772" x="31.228" y="110.791" style="fill:rgba(135,167,36,.25)"/><rect width="4.767" height="4.772" x="31.228" y="116.908" style="fill:#87a524"/><rect width="4.767" height="4.772" x="37.339" y="25.144" style="fill:#a3c23f"/><rect width="4.767" height="4.772" x="37.339" y="92.438" style="fill:rgba(139,169,39,.94)"/><rect width="4.767" height="4.772" x="37.339" y="98.555" style="fill:#8ba928"/><rect width="4.767" height="4.772" x="37.339" y="104.673" style="fill:#8ba928"/><rect width="4.767" height="4.772" x="37.339" y="110.791" style="fill:#8ba927"/><rect width="4.767" height="4.772" x="37.339" y="116.908" style="fill:#8aa827"/><rect width="4.767" height="4.772" x="37.339" y="123.026" style="fill:#89a826"/><rect width="4.767" height="4.772" x="37.339" y="129.144" style="fill:rgba(136,166,37,.94)"/><rect width="4.767" height="4.772" x="43.45" y="19.026" style="fill:#adcc48"/><rect width="4.767" height="4.772" x="43.45" y="86.32" style="fill:#8eac2a"/><rect width="4.767" height="4.772" x="43.45" y="92.438" style="fill:#8eac2b"/><rect width="4.767" height="4.772" x="43.45" y="98.555" style="fill:#8ead2b"/><rect width="4.767" height="4.772" x="43.45" y="104.673" style="fill:#8eac2b"/><rect width="4.767" height="4.772" x="43.45" y="110.791" style="fill:#8eac2b"/><rect width="4.767" height="4.772" x="43.45" y="116.908" style="fill:#8eac2a"/><rect width="4.767" height="4.772" x="43.45" y="123.026" style="fill:#8dab2a"/><rect width="4.767" height="4.772" x="43.45" y="129.144" style="fill:#8ba928"/><rect width="4.767" height="4.772" x="43.45" y="135.261" style="fill:#8aa827"/><rect width="4.767" height="4.772" x="49.561" y="12.908" style="fill:rgba(172,205,72,.18)"/><rect width="4.767" height="4.772" x="49.561" y="80.202" style="fill:rgba(145,174,45,.69)"/><rect width="4.767" height="4.772" x="49.561" y="86.32" style="fill:#91af2d"/><rect width="4.767" height="4.772" x="49.561" y="92.438" style="fill:#91b02e"/><rect width="4.767" height="4.772" x="49.561" y="98.555" style="fill:#92b02e"/><rect width="4.767" height="4.772" x="49.561" y="104.673" style="fill:#92b02e"/><rect width="4.767" height="4.772" x="49.561" y="110.791" style="fill:#91af2e"/><rect width="4.767" height="4.772" x="49.561" y="116.908" style="fill:#91af2d"/><rect width="4.767" height="4.772" x="49.561" y="123.026" style="fill:#90ae2c"/><rect width="4.767" height="4.772" x="49.561" y="129.144" style="fill:#8eac2b"/><rect width="4.767" height="4.772" x="49.561" y="135.261" style="fill:#8dab2a"/><rect width="4.767" height="4.772" x="55.672" y="19.026" style="fill:rgba(141,170,42,.82)"/><rect width="4.767" height="4.772" x="55.672" y="67.967" style="fill:#90ae2d"/><rect width="4.767" height="4.772" x="55.672" y="80.202" style="fill:#93b230"/><rect width="4.767" height="4.772" x="55.672" y="86.32" style="fill:#94b331"/><rect width="4.767" height="4.772" x="55.672" y="92.438" style="fill:#95b331"/><rect width="4.767" height="4.772" x="55.672" y="98.555" style="fill:#95b331"/><rect width="4.767" height="4.772" x="55.672" y="104.673" style="fill:#95b331"/><rect width="4.767" height="4.772" x="55.672" y="110.791" style="fill:#95b331"/><rect width="4.767" height="4.772" x="55.672" y="116.908" style="fill:#94b230"/><rect width="4.767" height="4.772" x="55.672" y="123.026" style="fill:#93b230"/><rect width="4.767" height="4.772" x="55.672" y="129.144" style="fill:#92b02e"/><rect width="4.767" height="4.772" x="55.672" y="135.261" style="fill:#90ae2c"/><rect width="4.767" height="4.772" x="61.783" y="6.791" style="fill:rgba(163,193,63,.58)"/><rect width="4.767" height="4.772" x="61.783" y="12.908" style="fill:#9fbe3b"/><rect width="4.767" height="4.772" x="61.783" y="55.732" style="fill:rgba(145,175,44,.5)"/><rect width="4.767" height="4.772" x="61.783" y="61.849" style="fill:#91b02e"/><rect width="4.767" height="4.772" x="61.783" y="67.967" style="fill:#93b230"/><rect width="4.767" height="4.772" x="61.783" y="74.085" style="fill:#95b331"/><rect width="4.767" height="4.772" x="61.783" y="80.202" style="fill:#97b533"/><rect width="4.767" height="4.772" x="61.783" y="86.32" style="fill:#97b633"/><rect width="4.767" height="4.772" x="61.783" y="92.438" style="fill:#98b634"/><rect width="4.767" height="4.772" x="61.783" y="98.555" style="fill:#98b734"/><rect width="4.767" height="4.772" x="61.783" y="104.673" style="fill:#98b734"/><rect width="4.767" height="4.772" x="61.783" y="110.791" style="fill:#98b634"/><rect width="4.767" height="4.772" x="61.783" y="116.908" style="fill:#97b633"/><rect width="4.767" height="4.772" x="61.783" y="123.026" style="fill:#96b532"/><rect width="4.767" height="4.772" x="61.783" y="129.144" style="fill:#94b331"/><rect width="4.767" height="4.772" x="61.783" y="135.261" style="fill:#93b12f"/><rect width="4.767" height="4.772" x="67.894" y="12.908" style="fill:#adcc48"/><rect width="4.767" height="4.772" x="67.894" y="37.379" style="fill:#accb47"/><rect width="4.767" height="4.772" x="67.894" y="61.849" style="fill:#94b331"/><rect width="4.767" height="4.772" x="67.894" y="67.967" style="fill:rgba(151,181,50,.38)"/><rect width="4.767" height="4.772" x="67.894" y="74.085" style="fill:#98b634"/><rect width="4.767" height="4.772" x="67.894" y="80.202" style="fill:#9ab836"/><rect width="4.767" height="4.772" x="67.894" y="86.32" style="fill:#9bb937"/><rect width="4.767" height="4.772" x="67.894" y="92.438" style="fill:#9bba37"/><rect width="4.767" height="4.772" x="67.894" y="98.555" style="fill:#9cba38"/><rect width="4.767" height="4.772" x="67.894" y="104.673" style="fill:#9cba38"/><rect width="4.767" height="4.772" x="67.894" y="110.791" style="fill:#9bba37"/><rect width="4.767" height="4.772" x="67.894" y="116.908" style="fill:#9bb936"/><rect width="4.767" height="4.772" x="67.894" y="123.026" style="fill:#9ab836"/><rect width="4.767" height="4.772" x="67.894" y="129.144" style="fill:#98b634"/><rect width="4.767" height="4.772" x="67.894" y="135.261" style="fill:#96b432"/><rect width="4.767" height="4.772" x="74.006" y="6.791" style="fill:#b2d04c"/><rect width="4.767" height="4.772" x="74.006" y="12.908" style="fill:#b6d550"/><rect width="4.767" height="4.772" x="74.006" y="19.026" style="fill:rgba(169,199,67,.87)"/><rect width="4.767" height="4.772" x="74.006" y="43.496" style="fill:rgba(135,165,36,.5)"/><rect width="4.767" height="4.772" x="74.006" y="49.614" style="fill:#92b12f"/><rect width="4.767" height="4.772" x="74.006" y="55.732" style="fill:#95b331"/><rect width="4.767" height="4.772" x="74.006" y="61.849" style="fill:rgba(151,181,50,.38)"/><rect width="4.767" height="4.772" x="74.006" y="74.085" style="fill:#9bb936"/><rect width="4.767" height="4.772" x="74.006" y="80.202" style="fill:#9dbb39"/><rect width="4.767" height="4.772" x="74.006" y="86.32" style="fill:#9ebc3a"/><rect width="4.767" height="4.772" x="74.006" y="92.438" style="fill:#9fbd3a"/><rect width="4.767" height="4.772" x="74.006" y="98.555" style="fill:#9fbd3b"/><rect width="4.767" height="4.772" x="74.006" y="104.673" style="fill:#9fbe3b"/><rect width="4.767" height="4.772" x="74.006" y="110.791" style="fill:#9fbd3a"/><rect width="4.767" height="4.772" x="74.006" y="116.908" style="fill:#9ebc3a"/><rect width="4.767" height="4.772" x="74.006" y="123.026" style="fill:#9dbb38"/><rect width="4.767" height="4.772" x="74.006" y="129.144" style="fill:#9ab936"/><rect width="4.767" height="4.772" x="74.006" y="135.261" style="fill:#99b735"/><rect width="4.767" height="4.772" x="74.006" y="141.379" style="fill:#97b533"/><rect width="4.767" height="4.772" x="80.117" y=".673" style="fill:rgba(138,168,39,.82)"/><rect width="4.767" height="4.772" x="80.117" y="6.791" style="fill:#a6c441"/><rect width="4.767" height="4.772" x="80.117" y="43.496" style="fill:rgba(148,177,48,.81)"/><rect width="4.767" height="4.772" x="80.117" y="49.614" style="fill:#96b432"/><rect width="4.767" height="4.772" x="80.117" y="55.732" style="fill:#98b734"/><rect width="4.767" height="4.772" x="80.117" y="74.085" style="fill:#9fbd3b"/><rect width="4.767" height="4.772" x="80.117" y="80.202" style="fill:#a0bf3c"/><rect width="4.767" height="4.772" x="80.117" y="86.32" style="fill:#a2c03d"/><rect width="4.767" height="4.772" x="80.117" y="92.438" style="fill:#a2c13e"/><rect width="4.767" height="4.772" x="80.117" y="98.555" style="fill:#a3c13e"/><rect width="4.767" height="4.772" x="80.117" y="104.673" style="fill:#a3c13e"/><rect width="4.767" height="4.772" x="80.117" y="110.791" style="fill:#a2c13e"/><rect width="4.767" height="4.772" x="80.117" y="116.908" style="fill:#a1c03d"/><rect width="4.767" height="4.772" x="80.117" y="123.026" style="fill:#a0bf3c"/><rect width="4.767" height="4.772" x="80.117" y="129.144" style="fill:#9fbd3a"/><rect width="4.767" height="4.772" x="80.117" y="135.261" style="fill:#9dbb38"/><rect width="4.767" height="4.772" x="80.117" y="141.379" style="fill:#9bb936"/><rect width="4.767" height="4.772" x="80.117" y="147.496" style="fill:#98b634"/><rect width="4.767" height="4.772" x="80.117" y="153.614" style="fill:#96b432"/><rect width="4.767" height="4.772" x="86.228" y=".673" style="fill:rgba(146,176,45,.75)"/><rect width="4.767" height="4.772" x="86.228" y="6.791" style="fill:#98b634"/><rect width="4.767" height="4.772" x="86.228" y="43.496" style="fill:#95b432"/><rect width="4.767" height="4.772" x="86.228" y="49.614" style="fill:#98b634"/><rect width="4.767" height="4.772" x="86.228" y="55.732" style="fill:#9bb937"/><rect width="4.767" height="4.772" x="86.228" y="80.202" style="fill:#a3c23f"/><rect width="4.767" height="4.772" x="86.228" y="86.32" style="fill:#a5c340"/><rect width="4.767" height="4.772" x="86.228" y="92.438" style="fill:#a6c441"/><rect width="4.767" height="4.772" x="86.228" y="98.555" style="fill:#a6c541"/><rect width="4.767" height="4.772" x="86.228" y="104.673" style="fill:#a6c541"/><rect width="4.767" height="4.772" x="86.228" y="110.791" style="fill:#a5c441"/><rect width="4.767" height="4.772" x="86.228" y="116.908" style="fill:#a4c340"/><rect width="4.767" height="4.772" x="86.228" y="123.026" style="fill:#a3c13e"/><rect width="4.767" height="4.772" x="86.228" y="129.144" style="fill:#a1c03d"/><rect width="4.767" height="4.772" x="86.228" y="135.261" style="fill:#9fbe3b"/><rect width="4.767" height="4.772" x="86.228" y="141.379" style="fill:#9dbb38"/><rect width="4.767" height="4.772" x="86.228" y="147.496" style="fill:#9ab936"/><rect width="4.767" height="4.772" x="86.228" y="153.614" style="fill:#98b634"/><rect width="4.767" height="4.772" x="86.228" y="159.732" style="fill:#95b331"/><rect width="4.767" height="4.772" x="86.228" y="165.849" style="fill:rgba(143,175,48,.19)"/><rect width="4.767" height="4.772" x="92.339" y="25.144" style="fill:#8eac2b"/><rect width="4.767" height="4.772" x="92.339" y="31.261" style="fill:rgba(143,175,48,.13)"/><rect width="4.767" height="4.772" x="92.339" y="43.496" style="fill:#97b533"/><rect width="4.767" height="4.772" x="92.339" y="49.614" style="fill:#9ab836"/><rect width="4.767" height="4.772" x="92.339" y="55.732" style="fill:rgba(157,187,57,.44)"/><rect width="4.767" height="4.772" x="92.339" y="61.849" style="fill:#9fbe3b"/><rect width="4.767" height="4.772" x="92.339" y="86.32" style="fill:#a8c643"/><rect width="4.767" height="4.772" x="92.339" y="92.438" style="fill:#a9c744"/><rect width="4.767" height="4.772" x="92.339" y="98.555" style="fill:#aac845"/><rect width="4.767" height="4.772" x="92.339" y="104.673" style="fill:#a9c844"/><rect width="4.767" height="4.772" x="92.339" y="110.791" style="fill:#a9c744"/><rect width="4.767" height="4.772" x="92.339" y="116.908" style="fill:#a7c643"/><rect width="4.767" height="4.772" x="92.339" y="123.026" style="fill:#a6c441"/><rect width="4.767" height="4.772" x="92.339" y="129.144" style="fill:#a4c33f"/><rect width="4.767" height="4.772" x="92.339" y="135.261" style="fill:#a1c03d"/><rect width="4.767" height="4.772" x="92.339" y="141.379" style="fill:#9fbe3b"/><rect width="4.767" height="4.772" x="92.339" y="147.496" style="fill:#9cbb38"/><rect width="4.767" height="4.772" x="92.339" y="153.614" style="fill:#9ab836"/><rect width="4.767" height="4.772" x="92.339" y="159.732" style="fill:#97b533"/><rect width="4.767" height="4.772" x="92.339" y="165.849" style="fill:#94b230"/><rect width="4.767" height="4.772" x="92.339" y="171.967" style="fill:#91af2d"/><rect width="4.767" height="4.772" x="92.339" y="178.085" style="fill:#8eac2a"/><rect width="4.767" height="4.772" x="92.339" y="184.202" style="fill:#89a726"/><rect width="4.767" height="4.772" x="92.339" y="190.32" style="fill:rgba(134,166,35,.31)"/><rect width="4.767" height="4.772" x="98.45" y="19.026" style="fill:rgba(140,169,38,.31)"/><rect width="4.767" height="4.772" x="98.45" y="25.144" style="fill:#8fad2c"/><rect width="4.767" height="4.772" x="98.45" y="31.261" style="fill:rgba(147,176,47,.94)"/><rect width="4.767" height="4.772" x="98.45" y="37.379" style="fill:rgba(151,183,48,.13)"/><rect width="4.767" height="4.772" x="98.45" y="43.496" style="fill:#98b735"/><rect width="4.767" height="4.772" x="98.45" y="49.614" style="fill:#9bba37"/><rect width="4.767" height="4.772" x="98.45" y="55.732" style="fill:#9ebd3a"/><rect width="4.767" height="4.772" x="98.45" y="86.32" style="fill:#abc946"/><rect width="4.767" height="4.772" x="98.45" y="92.438" style="fill:#accb47"/><rect width="4.767" height="4.772" x="98.45" y="98.555" style="fill:#adcb47"/><rect width="4.767" height="4.772" x="98.45" y="104.673" style="fill:#adcb48"/><rect width="4.767" height="4.772" x="98.45" y="110.791" style="fill:#accb47"/><rect width="4.767" height="4.772" x="98.45" y="116.908" style="fill:#aac945"/><rect width="4.767" height="4.772" x="98.45" y="123.026" style="fill:#a8c743"/><rect width="4.767" height="4.772" x="98.45" y="129.144" style="fill:#a6c541"/><rect width="4.767" height="4.772" x="98.45" y="135.261" style="fill:#a4c23f"/><rect width="4.767" height="4.772" x="98.45" y="141.379" style="fill:#a1bf3c"/><rect width="4.767" height="4.772" x="98.45" y="147.496" style="fill:#9ebc3a"/><rect width="4.767" height="4.772" x="98.45" y="153.614" style="fill:#9bb937"/><rect width="4.767" height="4.772" x="98.45" y="159.732" style="fill:#98b634"/><rect width="4.767" height="4.772" x="98.45" y="165.849" style="fill:#95b331"/><rect width="4.767" height="4.772" x="98.45" y="171.967" style="fill:#92b02e"/><rect width="4.767" height="4.772" x="98.45" y="178.085" style="fill:#8fad2b"/><rect width="4.767" height="4.772" x="98.45" y="184.202" style="fill:#8aa927"/><rect width="4.767" height="4.772" x="98.45" y="190.32" style="fill:#87a524"/><rect width="4.767" height="4.772" x="98.45" y="196.438" style="fill:#87a524"/><rect width="4.767" height="4.772" x="104.561" y="6.791" style="fill:rgba(127,159,32,.06)"/><rect width="4.767" height="4.772" x="104.561" y="19.026" style="fill:#8caa29"/><rect width="4.767" height="4.772" x="104.561" y="25.144" style="fill:rgba(145,174,45,.75)"/><rect width="4.767" height="4.772" x="104.561" y="37.379" style="fill:#97b533"/><rect width="4.767" height="4.772" x="104.561" y="43.496" style="fill:#9ab836"/><rect width="4.767" height="4.772" x="104.561" y="49.614" style="fill:#9dbb39"/><rect width="4.767" height="4.772" x="104.561" y="55.732" style="fill:#a0be3b"/><rect width="4.767" height="4.772" x="104.561" y="61.849" style="fill:#a3c23e"/><rect width="4.767" height="4.772" x="104.561" y="67.967" style="fill:#a6c441"/><rect width="4.767" height="4.772" x="104.561" y="80.202" style="fill:rgba(170,202,69,.19)"/><rect width="4.767" height="4.772" x="104.561" y="86.32" style="fill:#aecc48"/><rect width="4.767" height="4.772" x="104.561" y="92.438" style="fill:#afce4a"/><rect width="4.767" height="4.772" x="104.561" y="98.555" style="fill:#b0cf4b"/><rect width="4.767" height="4.772" x="104.561" y="104.673" style="fill:#b0cf4b"/><rect width="4.767" height="4.772" x="104.561" y="110.791" style="fill:#afce4a"/><rect width="4.767" height="4.772" x="104.561" y="116.908" style="fill:#adcc48"/><rect width="4.767" height="4.772" x="104.561" y="123.026" style="fill:#abca46"/><rect width="4.767" height="4.772" x="104.561" y="129.144" style="fill:#a8c744"/><rect width="4.767" height="4.772" x="104.561" y="135.261" style="fill:#a5c441"/><rect width="4.767" height="4.772" x="104.561" y="141.379" style="fill:#a3c13e"/><rect width="4.767" height="4.772" x="104.561" y="147.496" style="fill:#9fbe3b"/><rect width="4.767" height="4.772" x="104.561" y="153.614" style="fill:#9cbb38"/><rect width="4.767" height="4.772" x="104.561" y="159.732" style="fill:#99b835"/><rect width="4.767" height="4.772" x="104.561" y="165.849" style="fill:#96b432"/><rect width="4.767" height="4.772" x="104.561" y="171.967" style="fill:#93b12f"/><rect width="4.767" height="4.772" x="104.561" y="178.085" style="fill:#90ae2c"/><rect width="4.767" height="4.772" x="104.561" y="184.202" style="fill:#8ba928"/><rect width="4.767" height="4.772" x="104.561" y="190.32" style="fill:#88a625"/><rect width="4.767" height="4.772" x="104.561" y="196.438" style="fill:#87a524"/><rect width="4.767" height="4.772" x="104.561" y="202.555" style="fill:#87a524"/><rect width="4.767" height="4.772" x="110.672" y="19.026" style="fill:#8caa29"/><rect width="4.767" height="4.772" x="110.672" y="25.144" style="fill:#91af2d"/><rect width="4.767" height="4.772" x="110.672" y="31.261" style="fill:#94b230"/><rect width="4.767" height="4.772" x="110.672" y="37.379" style="fill:#97b633"/><rect width="4.767" height="4.772" x="110.672" y="43.496" style="fill:#9bb937"/><rect width="4.767" height="4.772" x="110.672" y="49.614" style="fill:#9ebc39"/><rect width="4.767" height="4.772" x="110.672" y="55.732" style="fill:#a1c03d"/><rect width="4.767" height="4.772" x="110.672" y="61.849" style="fill:#a4c33f"/><rect width="4.767" height="4.772" x="110.672" y="86.32" style="fill:#b0cf4b"/><rect width="4.767" height="4.772" x="110.672" y="92.438" style="fill:#b2d14d"/><rect width="4.767" height="4.772" x="110.672" y="98.555" style="fill:#b3d24e"/><rect width="4.767" height="4.772" x="110.672" y="104.673" style="fill:#b3d24e"/><rect width="4.767" height="4.772" x="110.672" y="110.791" style="fill:#b2d14c"/><rect width="4.767" height="4.772" x="110.672" y="116.908" style="fill:#b0ce4a"/><rect width="4.767" height="4.772" x="110.672" y="123.026" style="fill:#adcc48"/><rect width="4.767" height="4.772" x="110.672" y="129.144" style="fill:#aac945"/><rect width="4.767" height="4.772" x="110.672" y="135.261" style="fill:#a7c642"/><rect width="4.767" height="4.772" x="110.672" y="141.379" style="fill:#a4c23f"/><rect width="4.767" height="4.772" x="110.672" y="147.496" style="fill:#a1bf3c"/><rect width="4.767" height="4.772" x="110.672" y="153.614" style="fill:#9dbc39"/><rect width="4.767" height="4.772" x="110.672" y="159.732" style="fill:#9ab936"/><rect width="4.767" height="4.772" x="110.672" y="165.849" style="fill:#97b533"/><rect width="4.767" height="4.772" x="110.672" y="171.967" style="fill:#94b230"/><rect width="4.767" height="4.772" x="110.672" y="178.085" style="fill:#90ae2d"/><rect width="4.767" height="4.772" x="110.672" y="184.202" style="fill:#8caa29"/><rect width="4.767" height="4.772" x="110.672" y="190.32" style="fill:#89a725"/><rect width="4.767" height="4.772" x="110.672" y="196.438" style="fill:#87a524"/><rect width="4.767" height="4.772" x="110.672" y="202.555" style="fill:#87a524"/><rect width="4.767" height="4.772" x="116.783" y="19.026" style="fill:#8dab2a"/><rect width="4.767" height="4.772" x="116.783" y="25.144" style="fill:#91b02e"/><rect width="4.767" height="4.772" x="116.783" y="31.261" style="fill:#95b331"/><rect width="4.767" height="4.772" x="116.783" y="37.379" style="fill:#98b634"/><rect width="4.767" height="4.772" x="116.783" y="43.496" style="fill:#9bba37"/><rect width="4.767" height="4.772" x="116.783" y="49.614" style="fill:#9fbd3a"/><rect width="4.767" height="4.772" x="116.783" y="55.732" style="fill:rgba(159,191,64,.06)"/><rect width="4.767" height="4.772" x="116.783" y="67.967" style="fill:#a8c743"/><rect width="4.767" height="4.772" x="116.783" y="86.32" style="fill:#b2d14d"/><rect width="4.767" height="4.772" x="116.783" y="92.438" style="fill:#b5d44f"/><rect width="4.767" height="4.772" x="116.783" y="98.555" style="fill:#b7d651"/><rect width="4.767" height="4.772" x="116.783" y="104.673" style="fill:#b6d551"/><rect width="4.767" height="4.772" x="116.783" y="110.791" style="fill:#b4d34f"/><rect width="4.767" height="4.772" x="116.783" y="116.908" style="fill:#b1d04c"/><rect width="4.767" height="4.772" x="116.783" y="123.026" style="fill:#aecd49"/><rect width="4.767" height="4.772" x="116.783" y="129.144" style="fill:#abca46"/><rect width="4.767" height="4.772" x="116.783" y="135.261" style="fill:#a8c643"/><rect width="4.767" height="4.772" x="116.783" y="141.379" style="fill:#a5c340"/><rect width="4.767" height="4.772" x="116.783" y="147.496" style="fill:#a1c03d"/><rect width="4.767" height="4.772" x="116.783" y="153.614" style="fill:#9ebd3a"/><rect width="4.767" height="4.772" x="116.783" y="159.732" style="fill:#9bb937"/><rect width="4.767" height="4.772" x="116.783" y="165.849" style="fill:#97b634"/><rect width="4.767" height="4.772" x="116.783" y="171.967" style="fill:#94b230"/><rect width="4.767" height="4.772" x="116.783" y="178.085" style="fill:#91af2d"/><rect width="4.767" height="4.772" x="116.783" y="184.202" style="fill:#8caa29"/><rect width="4.767" height="4.772" x="116.783" y="190.32" style="fill:#89a726"/><rect width="4.767" height="4.772" x="116.783" y="196.438" style="fill:#87a524"/><rect width="4.767" height="4.772" x="116.783" y="202.555" style="fill:#87a524"/><rect width="4.767" height="4.772" x="122.894" y="6.791" style="fill:rgba(135,167,40,.13)"/><rect width="4.767" height="4.772" x="122.894" y="19.026" style="fill:rgba(142,172,41,.56)"/><rect width="4.767" height="4.772" x="122.894" y="25.144" style="fill:#91b02e"/><rect width="4.767" height="4.772" x="122.894" y="31.261" style="fill:#95b331"/><rect width="4.767" height="4.772" x="122.894" y="37.379" style="fill:#98b634"/><rect width="4.767" height="4.772" x="122.894" y="43.496" style="fill:#9bba37"/><rect width="4.767" height="4.772" x="122.894" y="49.614" style="fill:#9fbd3a"/><rect width="4.767" height="4.772" x="122.894" y="55.732" style="fill:#a2c13e"/><rect width="4.767" height="4.772" x="122.894" y="61.849" style="fill:rgba(165,195,64,.69)"/><rect width="4.767" height="4.772" x="122.894" y="67.967" style="fill:#a9c744"/><rect width="4.767" height="4.772" x="122.894" y="86.32" style="fill:#b3d24d"/><rect width="4.767" height="4.772" x="122.894" y="92.438" style="fill:#b6d550"/><rect width="4.767" height="4.772" x="122.894" y="98.555" style="fill:#b9d853"/><rect width="4.767" height="4.772" x="122.894" y="104.673" style="fill:#b9d853"/><rect width="4.767" height="4.772" x="122.894" y="110.791" style="fill:#b6d450"/><rect width="4.767" height="4.772" x="122.894" y="116.908" style="fill:#b2d14d"/><rect width="4.767" height="4.772" x="122.894" y="123.026" style="fill:#afce4a"/><rect width="4.767" height="4.772" x="122.894" y="129.144" style="fill:#acca46"/><rect width="4.767" height="4.772" x="122.894" y="135.261" style="fill:#a8c743"/><rect width="4.767" height="4.772" x="122.894" y="141.379" style="fill:#a5c340"/><rect width="4.767" height="4.772" x="122.894" y="147.496" style="fill:#a2c03d"/><rect width="4.767" height="4.772" x="122.894" y="153.614" style="fill:#9ebd3a"/><rect width="4.767" height="4.772" x="122.894" y="159.732" style="fill:#9bb937"/><rect width="4.767" height="4.772" x="122.894" y="165.849" style="fill:#98b634"/><rect width="4.767" height="4.772" x="122.894" y="171.967" style="fill:#94b331"/><rect width="4.767" height="4.772" x="122.894" y="178.085" style="fill:#91af2d"/><rect width="4.767" height="4.772" x="122.894" y="184.202" style="fill:#8dab29"/><rect width="4.767" height="4.772" x="122.894" y="190.32" style="fill:#89a726"/><rect width="4.767" height="4.772" x="122.894" y="196.438" style="fill:#87a524"/><rect width="4.767" height="4.772" x="129.006" y="19.026" style="fill:#8dab2a"/><rect width="4.767" height="4.772" x="129.006" y="25.144" style="fill:#91b02e"/><rect width="4.767" height="4.772" x="129.006" y="31.261" style="fill:#95b331"/><rect width="4.767" height="4.772" x="129.006" y="37.379" style="fill:#98b634"/><rect width="4.767" height="4.772" x="129.006" y="43.496" style="fill:#9bba37"/><rect width="4.767" height="4.772" x="129.006" y="49.614" style="fill:#9fbd3a"/><rect width="4.767" height="4.772" x="129.006" y="61.849" style="fill:#a5c441"/><rect width="4.767" height="4.772" x="129.006" y="67.967" style="fill:#a9c744"/><rect width="4.767" height="4.772" x="129.006" y="80.202" style="fill:rgba(175,207,80,.06)"/><rect width="4.767" height="4.772" x="129.006" y="86.32" style="fill:#b3d14d"/><rect width="4.767" height="4.772" x="129.006" y="92.438" style="fill:rgba(182,214,80,.31)"/><rect width="4.767" height="4.772" x="129.006" y="98.555" style="fill:#b8d752"/><rect width="4.767" height="4.772" x="129.006" y="104.673" style="fill:#b8d752"/><rect width="4.767" height="4.772" x="129.006" y="110.791" style="fill:#b5d450"/><rect width="4.767" height="4.772" x="129.006" y="116.908" style="fill:#b2d14d"/><rect width="4.767" height="4.772" x="129.006" y="123.026" style="fill:#afce4a"/><rect width="4.767" height="4.772" x="129.006" y="129.144" style="fill:#acca46"/><rect width="4.767" height="4.772" x="129.006" y="135.261" style="fill:#a8c743"/><rect width="4.767" height="4.772" x="129.006" y="141.379" style="fill:#a5c340"/><rect width="4.767" height="4.772" x="129.006" y="147.496" style="fill:#a1c03d"/><rect width="4.767" height="4.772" x="129.006" y="153.614" style="fill:#9ebd3a"/><rect width="4.767" height="4.772" x="129.006" y="159.732" style="fill:#9bb937"/><rect width="4.767" height="4.772" x="129.006" y="165.849" style="fill:#98b634"/><rect width="4.767" height="4.772" x="129.006" y="171.967" style="fill:#94b230"/><rect width="4.767" height="4.772" x="129.006" y="178.085" style="fill:#91af2d"/><rect width="4.767" height="4.772" x="129.006" y="184.202" style="fill:#8cab29"/><rect width="4.767" height="4.772" x="129.006" y="190.32" style="fill:#89a726"/><rect width="4.767" height="4.772" x="135.117" y=".673" style="fill:rgba(135,165,36,.75)"/><rect width="4.767" height="4.772" x="135.117" y="6.791" style="fill:#87a524"/><rect width="4.767" height="4.772" x="135.117" y="12.908" style="fill:rgba(137,167,38,.63)"/><rect width="4.767" height="4.772" x="135.117" y="19.026" style="fill:#8dab29"/><rect width="4.767" height="4.772" x="135.117" y="25.144" style="fill:#91af2d"/><rect width="4.767" height="4.772" x="135.117" y="31.261" style="fill:#94b331"/><rect width="4.767" height="4.772" x="135.117" y="37.379" style="fill:#98b634"/><rect width="4.767" height="4.772" x="135.117" y="43.496" style="fill:#9bb937"/><rect width="4.767" height="4.772" x="135.117" y="49.614" style="fill:#9ebd3a"/><rect width="4.767" height="4.772" x="135.117" y="55.732" style="fill:#a1c03d"/><rect width="4.767" height="4.772" x="135.117" y="61.849" style="fill:rgba(165,195,64,.5)"/><rect width="4.767" height="4.772" x="135.117" y="67.967" style="fill:#a8c743"/><rect width="4.767" height="4.772" x="135.117" y="74.085" style="fill:#abca46"/><rect width="4.767" height="4.772" x="135.117" y="80.202" style="fill:#aecd49"/><rect width="4.767" height="4.772" x="135.117" y="86.32" style="fill:#b1d04b"/><rect width="4.767" height="4.772" x="135.117" y="92.438" style="fill:#b3d24e"/><rect width="4.767" height="4.772" x="135.117" y="104.673" style="fill:#b5d44f"/><rect width="4.767" height="4.772" x="135.117" y="110.791" style="fill:#b3d24d"/><rect width="4.767" height="4.772" x="135.117" y="116.908" style="fill:#b1cf4b"/><rect width="4.767" height="4.772" x="135.117" y="123.026" style="fill:#aecc48"/><rect width="4.767" height="4.772" x="135.117" y="129.144" style="fill:#aac945"/><rect width="4.767" height="4.772" x="135.117" y="135.261" style="fill:#a7c643"/><rect width="4.767" height="4.772" x="135.117" y="141.379" style="fill:#a4c33f"/><rect width="4.767" height="4.772" x="135.117" y="147.496" style="fill:#a1bf3d"/><rect width="4.767" height="4.772" x="135.117" y="153.614" style="fill:#9ebc39"/><rect width="4.767" height="4.772" x="135.117" y="159.732" style="fill:#9ab936"/><rect width="4.767" height="4.772" x="135.117" y="165.849" style="fill:#97b533"/><rect width="4.767" height="4.772" x="135.117" y="171.967" style="fill:#94b230"/><rect width="4.767" height="4.772" x="135.117" y="178.085" style="fill:#90af2d"/><rect width="4.767" height="4.772" x="135.117" y="184.202" style="fill:rgba(141,170,40,.38)"/><rect width="4.767" height="4.772" x="141.228" y="6.791" style="fill:#87a524"/><rect width="4.767" height="4.772" x="141.228" y="12.908" style="fill:#89a726"/><rect width="4.767" height="4.772" x="141.228" y="19.026" style="fill:#8caa29"/><rect width="4.767" height="4.772" x="141.228" y="25.144" style="fill:#8fae2c"/><rect width="4.767" height="4.772" x="141.228" y="31.261" style="fill:#93b12f"/><rect width="4.767" height="4.772" x="141.228" y="37.379" style="fill:#96b432"/><rect width="4.767" height="4.772" x="141.228" y="43.496" style="fill:#99b835"/><rect width="4.767" height="4.772" x="141.228" y="49.614" style="fill:#9cbb38"/><rect width="4.767" height="4.772" x="141.228" y="55.732" style="fill:#a0be3b"/><rect width="4.767" height="4.772" x="141.228" y="61.849" style="fill:#a3c13e"/><rect width="4.767" height="4.772" x="141.228" y="67.967" style="fill:#a6c441"/><rect width="4.767" height="4.772" x="141.228" y="74.085" style="fill:#a8c743"/><rect width="4.767" height="4.772" x="141.228" y="80.202" style="fill:#accb47"/><rect width="4.767" height="4.772" x="141.228" y="86.32" style="fill:#aecd49"/><rect width="4.767" height="4.772" x="141.228" y="92.438" style="fill:#b0cf4b"/><rect width="4.767" height="4.772" x="141.228" y="98.555" style="fill:#b1d04c"/><rect width="4.767" height="4.772" x="141.228" y="104.673" style="fill:rgba(177,208,75,.94)"/><rect width="4.767" height="4.772" x="141.228" y="116.908" style="fill:#aecd49"/><rect width="4.767" height="4.772" x="141.228" y="123.026" style="fill:#acca47"/><rect width="4.767" height="4.772" x="141.228" y="129.144" style="fill:#a8c743"/><rect width="4.767" height="4.772" x="141.228" y="135.261" style="fill:#a5c440"/><rect width="4.767" height="4.772" x="141.228" y="141.379" style="fill:#a2c13d"/><rect width="4.767" height="4.772" x="141.228" y="147.496" style="fill:#9fbe3b"/><rect width="4.767" height="4.772" x="141.228" y="153.614" style="fill:#9cba38"/><rect width="4.767" height="4.772" x="141.228" y="159.732" style="fill:#99b735"/><rect width="4.767" height="4.772" x="141.228" y="165.849" style="fill:#95b432"/><rect width="4.767" height="4.772" x="141.228" y="171.967" style="fill:#92b12f"/><rect width="4.767" height="4.772" x="141.228" y="178.085" style="fill:#8fad2b"/><rect width="4.767" height="4.772" x="147.339" y="6.791" style="fill:#87a524"/><rect width="4.767" height="4.772" x="147.339" y="12.908" style="fill:#88a625"/><rect width="4.767" height="4.772" x="147.339" y="19.026" style="fill:#8caa28"/><rect width="4.767" height="4.772" x="147.339" y="25.144" style="fill:#8fad2b"/><rect width="4.767" height="4.772" x="147.339" y="31.261" style="fill:#92b02e"/><rect width="4.767" height="4.772" x="147.339" y="37.379" style="fill:#95b331"/><rect width="4.767" height="4.772" x="147.339" y="43.496" style="fill:#98b634"/><rect width="4.767" height="4.772" x="147.339" y="49.614" style="fill:#9bba37"/><rect width="4.767" height="4.772" x="147.339" y="55.732" style="fill:#9ebd3a"/><rect width="4.767" height="4.772" x="147.339" y="61.849" style="fill:#a1c03d"/><rect width="4.767" height="4.772" x="147.339" y="67.967" style="fill:#a4c23f"/><rect width="4.767" height="4.772" x="147.339" y="74.085" style="fill:#a7c542"/><rect width="4.767" height="4.772" x="147.339" y="80.202" style="fill:#aac845"/><rect width="4.767" height="4.772" x="147.339" y="86.32" style="fill:#accb47"/><rect width="4.767" height="4.772" x="147.339" y="92.438" style="fill:#adcc48"/><rect width="4.767" height="4.772" x="147.339" y="98.555" style="fill:#aecd49"/><rect width="4.767" height="4.772" x="147.339" y="104.673" style="fill:#aecd49"/><rect width="4.767" height="4.772" x="147.339" y="110.791" style="fill:#adcc48"/><rect width="4.767" height="4.772" x="147.339" y="123.026" style="fill:#aac845"/><rect width="4.767" height="4.772" x="147.339" y="129.144" style="fill:#a6c541"/><rect width="4.767" height="4.772" x="147.339" y="135.261" style="fill:#a3c23f"/><rect width="4.767" height="4.772" x="147.339" y="141.379" style="fill:#a1bf3c"/><rect width="4.767" height="4.772" x="147.339" y="147.496" style="fill:#9ebc39"/><rect width="4.767" height="4.772" x="147.339" y="153.614" style="fill:rgba(154,186,53,.19)"/><rect width="4.767" height="4.772" x="153.45" y="6.791" style="fill:rgba(135,165,37,.62)"/><rect width="4.767" height="4.772" x="153.45" y="12.908" style="fill:#87a524"/><rect width="4.767" height="4.772" x="153.45" y="19.026" style="fill:#8aa827"/><rect width="4.767" height="4.772" x="153.45" y="25.144" style="fill:#8dac2a"/><rect width="4.767" height="4.772" x="153.45" y="31.261" style="fill:#91af2d"/><rect width="4.767" height="4.772" x="153.45" y="37.379" style="fill:#94b230"/><rect width="4.767" height="4.772" x="153.45" y="43.496" style="fill:#97b533"/><rect width="4.767" height="4.772" x="153.45" y="49.614" style="fill:#9ab835"/><rect width="4.767" height="4.772" x="153.45" y="55.732" style="fill:#9dbb38"/><rect width="4.767" height="4.772" x="153.45" y="61.849" style="fill:#9fbe3b"/><rect width="4.767" height="4.772" x="153.45" y="67.967" style="fill:#a2c03d"/><rect width="4.767" height="4.772" x="153.45" y="74.085" style="fill:#a4c33f"/><rect width="4.767" height="4.772" x="153.45" y="80.202" style="fill:#a7c642"/><rect width="4.767" height="4.772" x="153.45" y="86.32" style="fill:#a9c744"/><rect width="4.767" height="4.772" x="153.45" y="92.438" style="fill:#aac945"/><rect width="4.767" height="4.772" x="153.45" y="98.555" style="fill:#abc946"/><rect width="4.767" height="4.772" x="153.45" y="104.673" style="fill:#abc946"/><rect width="4.767" height="4.772" x="153.45" y="110.791" style="fill:#aac845"/><rect width="4.767" height="4.772" x="153.45" y="116.908" style="fill:#a9c744"/><rect width="4.767" height="4.772" x="153.45" y="129.144" style="fill:#a4c23f"/><rect width="4.767" height="4.772" x="153.45" y="135.261" style="fill:#a1c03d"/><rect width="4.767" height="4.772" x="153.45" y="141.379" style="fill:#9fbd3a"/><rect width="4.767" height="4.772" x="153.45" y="178.085" style="fill:#a8c743"/><rect width="4.767" height="4.772" x="153.45" y="184.202" style="fill:#94b331"/><rect width="4.767" height="4.772" x="159.561" y="12.908" style="fill:#87a524"/><rect width="4.767" height="4.772" x="159.561" y="19.026" style="fill:#89a726"/><rect width="4.767" height="4.772" x="159.561" y="25.144" style="fill:#8caa29"/><rect width="4.767" height="4.772" x="159.561" y="31.261" style="fill:#8fad2c"/><rect width="4.767" height="4.772" x="159.561" y="37.379" style="fill:#92b02f"/><rect width="4.767" height="4.772" x="159.561" y="43.496" style="fill:#95b331"/><rect width="4.767" height="4.772" x="159.561" y="49.614" style="fill:#98b634"/><rect width="4.767" height="4.772" x="159.561" y="55.732" style="fill:#9ab936"/><rect width="4.767" height="4.772" x="159.561" y="61.849" style="fill:#9dbc39"/><rect width="4.767" height="4.772" x="159.561" y="67.967" style="fill:#9fbe3b"/><rect width="4.767" height="4.772" x="159.561" y="74.085" style="fill:#a2c03d"/><rect width="4.767" height="4.772" x="159.561" y="80.202" style="fill:#a4c340"/><rect width="4.767" height="4.772" x="159.561" y="92.438" style="fill:#a7c542"/><rect width="4.767" height="4.772" x="159.561" y="98.555" style="fill:#a7c643"/><rect width="4.767" height="4.772" x="159.561" y="104.673" style="fill:#a7c642"/><rect width="4.767" height="4.772" x="159.561" y="110.791" style="fill:#a7c542"/><rect width="4.767" height="4.772" x="159.561" y="116.908" style="fill:#a6c441"/><rect width="4.767" height="4.772" x="159.561" y="129.144" style="fill:#a1c03d"/><rect width="4.767" height="4.772" x="159.561" y="135.261" style="fill:#9fbe3b"/><rect width="4.767" height="4.772" x="159.561" y="171.967" style="fill:rgba(135,165,36,.69)"/><rect width="4.767" height="4.772" x="159.561" y="178.085" style="fill:#9ebd3a"/><rect width="4.767" height="4.772" x="165.672" y="19.026" style="fill:#88a625"/><rect width="4.767" height="4.772" x="165.672" y="25.144" style="fill:#8ba927"/><rect width="4.767" height="4.772" x="165.672" y="31.261" style="fill:#8eac2a"/><rect width="4.767" height="4.772" x="165.672" y="37.379" style="fill:#90af2d"/><rect width="4.767" height="4.772" x="165.672" y="43.496" style="fill:#93b12f"/><rect width="4.767" height="4.772" x="165.672" y="49.614" style="fill:#96b432"/><rect width="4.767" height="4.772" x="165.672" y="55.732" style="fill:#98b734"/><rect width="4.767" height="4.772" x="165.672" y="61.849" style="fill:#9bb936"/><rect width="4.767" height="4.772" x="165.672" y="67.967" style="fill:#9dbb39"/><rect width="4.767" height="4.772" x="165.672" y="74.085" style="fill:#9fbd3a"/><rect width="4.767" height="4.772" x="165.672" y="80.202" style="fill:#a1c03d"/><rect width="4.767" height="4.772" x="165.672" y="86.32" style="fill:#a3c13e"/><rect width="4.767" height="4.772" x="165.672" y="92.438" style="fill:rgba(167,191,64,.13)"/><rect width="4.767" height="4.772" x="165.672" y="98.555" style="fill:#a4c23f"/><rect width="4.767" height="4.772" x="165.672" y="104.673" style="fill:#a4c33f"/><rect width="4.767" height="4.772" x="165.672" y="110.791" style="fill:#a3c23f"/><rect width="4.767" height="4.772" x="165.672" y="123.026" style="fill:rgba(161,191,61,.75)"/><rect width="4.767" height="4.772" x="171.783" y="19.026" style="fill:#87a524"/><rect width="4.767" height="4.772" x="171.783" y="25.144" style="fill:#89a726"/><rect width="4.767" height="4.772" x="171.783" y="31.261" style="fill:#8caa28"/><rect width="4.767" height="4.772" x="171.783" y="37.379" style="fill:#8fad2b"/><rect width="4.767" height="4.772" x="171.783" y="43.496" style="fill:#91af2d"/><rect width="4.767" height="4.772" x="171.783" y="49.614" style="fill:#94b230"/><rect width="4.767" height="4.772" x="171.783" y="55.732" style="fill:#96b432"/><rect width="4.767" height="4.772" x="171.783" y="61.849" style="fill:#98b734"/><rect width="4.767" height="4.772" x="171.783" y="67.967" style="fill:#9ab936"/><rect width="4.767" height="4.772" x="171.783" y="74.085" style="fill:#9cbb38"/><rect width="4.767" height="4.772" x="171.783" y="80.202" style="fill:#9ebd3a"/><rect width="4.767" height="4.772" x="171.783" y="86.32" style="fill:#a0be3b"/><rect width="4.767" height="4.772" x="171.783" y="92.438" style="fill:#a0bf3c"/><rect width="4.767" height="4.772" x="171.783" y="98.555" style="fill:#a1bf3c"/><rect width="4.767" height="4.772" x="171.783" y="104.673" style="fill:#a1bf3c"/><rect width="4.767" height="4.772" x="177.894" y="25.144" style="fill:#87a524"/><rect width="4.767" height="4.772" x="177.894" y="31.261" style="fill:#8aa827"/><rect width="4.767" height="4.772" x="177.894" y="37.379" style="fill:#8caa29"/><rect width="4.767" height="4.772" x="177.894" y="43.496" style="fill:#8fad2b"/><rect width="4.767" height="4.772" x="177.894" y="49.614" style="fill:#91af2e"/><rect width="4.767" height="4.772" x="177.894" y="55.732" style="fill:#94b230"/><rect width="4.767" height="4.772" x="177.894" y="61.849" style="fill:#95b432"/><rect width="4.767" height="4.772" x="177.894" y="67.967" style="fill:#97b634"/><rect width="4.767" height="4.772" x="177.894" y="74.085" style="fill:#99b735"/><rect width="4.767" height="4.772" x="177.894" y="80.202" style="fill:#9bba37"/><rect width="4.767" height="4.772" x="177.894" y="86.32" style="fill:#9cbb38"/><rect width="4.767" height="4.772" x="184.006" y="31.261" style="fill:#88a625"/><rect width="4.767" height="4.772" x="184.006" y="37.379" style="fill:#8aa827"/><rect width="4.767" height="4.772" x="184.006" y="43.496" style="fill:#8dab29"/><rect width="4.767" height="4.772" x="184.006" y="49.614" style="fill:#8fad2b"/><rect width="4.767" height="4.772" x="184.006" y="55.732" style="fill:#91af2d"/><rect width="4.767" height="4.772" x="184.006" y="61.849" style="fill:#93b12f"/><rect width="4.767" height="4.772" x="184.006" y="67.967" style="fill:#95b331"/><rect width="4.767" height="4.772" x="184.006" y="74.085" style="fill:#96b432"/><rect width="4.767" height="4.772" x="184.006" y="80.202" style="fill:#98b634"/><rect width="4.767" height="4.772" x="190.117" y="37.379" style="fill:#88a625"/><rect width="4.767" height="4.772" x="190.117" y="43.496" style="fill:#8aa827"/><rect width="4.767" height="4.772" x="190.117" y="49.614" style="fill:#8caa29"/><rect width="4.767" height="4.772" x="190.117" y="55.732" style="fill:#8eac2b"/><rect width="4.767" height="4.772" x="190.117" y="61.849" style="fill:#90ae2c"/><rect width="4.767" height="4.772" x="190.117" y="67.967" style="fill:#92b02e"/><rect width="4.767" height="4.772" x="190.117" y="74.085" style="fill:#93b12f"/><rect width="4.767" height="4.772" x="190.117" y="80.202" style="fill:#95b331"/><rect width="4.767" height="4.772" x="190.117" y="86.32" style="fill:#96b432"/><rect width="4.767" height="4.772" x="196.228" y="43.496" style="fill:#88a625"/><rect width="4.767" height="4.772" x="196.228" y="49.614" style="fill:#8aa827"/><rect width="4.767" height="4.772" x="196.228" y="55.732" style="fill:#8caa28"/><rect width="4.767" height="4.772" x="196.228" y="61.849" style="fill:#8dac2a"/><rect width="4.767" height="4.772" x="196.228" y="67.967" style="fill:#8fad2b"/><rect width="4.767" height="4.772" x="196.228" y="74.085" style="fill:#90ae2d"/><rect width="4.767" height="4.772" x="196.228" y="80.202" style="fill:#91af2d"/><rect width="4.767" height="4.772" x="196.228" y="86.32" style="fill:#92b02e"/><rect width="4.767" height="4.772" x="196.228" y="92.438" style="fill:#92b02e"/><rect width="4.767" height="4.772" x="196.228" y="98.555" style="fill:rgba(147,177,46,.63)"/><rect width="4.767" height="4.772" x="202.339" y="55.732" style="fill:#89a726"/><rect width="4.767" height="4.772" x="202.339" y="61.849" style="fill:#8aa827"/><rect width="4.767" height="4.772" x="202.339" y="67.967" style="fill:#8caa29"/><rect width="4.767" height="4.772" x="202.339" y="74.085" style="fill:#8dab2a"/><rect width="4.767" height="4.772" x="202.339" y="80.202" style="fill:#8eac2a"/><rect width="4.767" height="4.772" x="202.339" y="86.32" style="fill:#8eac2b"/><rect width="4.767" height="4.772" x="202.339" y="92.438" style="fill:#8fad2b"/><rect width="4.767" height="4.772" x="202.339" y="98.555" style="fill:#8fad2c"/><rect width="4.767" height="4.772" x="202.339" y="104.673" style="fill:#8fad2c"/><rect width="4.767" height="4.772" x="202.339" y="110.791" style="fill:#8fad2b"/><rect width="4.767" height="4.772" x="208.45" y="67.967" style="fill:#89a726"/><rect width="4.767" height="4.772" x="208.45" y="74.085" style="fill:#8aa827"/><rect width="4.767" height="4.772" x="214.561" y="86.32" style="fill:#88a625"/></g></a><text style="fill:#9bc456;font-family:RobotoBold;font-size:40px;font-weight:700;white-space:pre;filter:url(#contrast-filter-0)" x="43.132" y="257.717">GeoVista</text><path style="fill:#d8d8d8;stroke:#000" d="M 299.693 26.867"/></svg>